<svg width="120" height="120" viewBox="0 0 120 120" fill="none" xmlns="http://www.w3.org/2000/svg">
<circle cx="60" cy="60" r="28" fill="#00844A"/>
<path d="M70 62.7491C70 63.8255 69.7173 64.8145 69.1518 65.7164C68.6161 66.6182 67.8869 67.3455 66.9643 67.8982C66.0417 68.4218 65.0149 68.6836 63.8839 68.6836H62.0536V72H57.9018V68.6836H50V64.4073H63.8839C64.3899 64.4073 64.8065 64.2473 65.1339 63.9273C65.4613 63.6073 65.625 63.2145 65.625 62.7491C65.625 62.2545 65.4613 61.8473 65.1339 61.5273C64.8065 61.2073 64.3899 61.0473 63.8839 61.0473H55.3125C54.3304 61.0473 53.4375 60.8145 52.6339 60.3491C51.8304 59.8836 51.1905 59.2582 50.7143 58.4727C50.2381 57.6873 50 56.8145 50 55.8545C50 54.8945 50.2381 54.0218 50.7143 53.2364C51.1905 52.4509 51.8304 51.8255 52.6339 51.36C53.4375 50.8945 54.3304 50.6618 55.3125 50.6618H57.9018V48H62.0536V50.6618H68.4375V54.9382H55.3125C55.0149 54.9382 54.7768 55.04 54.5982 55.2436C54.4494 55.4182 54.375 55.6218 54.375 55.8545C54.375 56.1164 54.4643 56.3345 54.6429 56.5091C54.8214 56.6836 55.0446 56.7709 55.3125 56.7709H63.8839C65.0149 56.7709 66.0417 57.0473 66.9643 57.6C67.8869 58.1236 68.6161 58.8364 69.1518 59.7382C69.7173 60.64 70 61.6436 70 62.7491Z" fill="white"/>
<path d="M24.6821 62.4724H26.3175C26.7876 62.4724 27.1172 62.0232 26.9606 61.5959L24.2676 54.2289C24.2676 54.2289 22.9717 44 12.4576 44C1.94356 44 0.983879 53.9462 1.0002 55.7652C1.01652 57.4208 3.53976 66.6224 3.42225 68.6676C3.34065 70.0907 3.22966 73.0752 3.17091 74.7654C3.14806 75.4408 3.7095 76 4.41131 76H16.2082C16.8349 76 17.3605 75.5508 17.4388 74.9539L17.948 70.9452C17.9872 70.6468 18.2386 70.4143 18.5519 70.3892L22.9978 70.0593C24.075 69.9808 24.8976 69.098 24.8649 68.0581L24.6887 62.4724H24.6821Z" fill="#A1D5A7"/>
<path d="M95.3179 62.4724H93.6825C93.2124 62.4724 92.8828 62.0232 93.0394 61.5959L95.7324 54.2289C95.7324 54.2289 97.0283 44 107.542 44C118.056 44 119.016 53.9462 119 55.7652C118.983 57.4208 116.46 66.6224 116.578 68.6676C116.659 70.0907 116.77 73.0752 116.829 74.7654C116.852 75.4408 116.29 76 115.589 76H103.792C103.165 76 102.64 75.5508 102.561 74.9539L102.052 70.9452C102.013 70.6468 101.761 70.4143 101.448 70.3892L97.0022 70.0593C95.925 69.9808 95.1024 69.098 95.1351 68.0581L95.3113 62.4724H95.3179Z" fill="#A1D5A7"/>
<g clip-path="url(#clip0_1621_19924)">
<path d="M18.7287 32.4666C18.1161 32.4666 17.4973 32.3151 16.922 31.9899C15.1184 30.9767 14.4685 28.6694 15.4667 26.8418C16.1633 25.5666 16.922 24.3072 17.7274 23.0982C26.9318 9.26041 42.2311 1 58.656 1C76.5922 1 93.1415 10.9018 101.842 26.8418C102.84 28.6725 102.19 30.9767 100.387 31.9899C98.5864 33.0032 96.3133 32.3435 95.3151 30.5127C87.9267 16.9811 73.8806 8.57546 58.656 8.57546C44.7157 8.57546 31.7268 15.5891 23.9155 27.3342C23.2314 28.3632 22.5877 29.4301 21.9969 30.5127C21.3159 31.7595 20.0409 32.4666 18.7287 32.4666Z" fill="#E8EEF4"/>
<path d="M102.134 33H88.2935C86.6299 33 85.7996 30.961 86.9751 29.7678L100.816 15.7185C101.991 14.5254 104 15.3713 104 17.0569V31.1062C104 32.151 103.164 33 102.134 33Z" fill="#E8EEF4"/>
</g>
<g clip-path="url(#clip1_1621_19924)">
<path d="M100.271 87.5334C100.884 87.5334 101.503 87.6849 102.078 88.0101C103.882 89.0233 104.531 91.3306 103.533 93.1582C102.837 94.4334 102.078 95.6928 101.273 96.9018C92.0682 110.74 76.7689 119 60.344 119C42.4078 119 25.8585 109.098 17.1578 93.1582C16.1596 91.3275 16.8095 89.0233 18.6131 88.0101C20.4136 86.9968 22.6867 87.6565 23.6849 89.4873C31.0733 103.019 45.1194 111.425 60.344 111.425C74.2843 111.425 87.2732 104.411 95.0845 92.6658C95.7686 91.6368 96.4123 90.5699 97.0031 89.4873C97.6841 88.2405 98.9591 87.5334 100.271 87.5334Z" fill="#E8EEF4"/>
<path d="M16.8656 87H30.7065C32.3701 87 33.2004 89.039 32.0249 90.2322L18.1841 104.281C17.0087 105.475 14.9999 104.629 14.9999 102.943V88.8938C14.9999 87.849 15.8363 87 16.8656 87Z" fill="#E8EEF4"/>
</g>
<defs>
<clipPath id="clip0_1621_19924">
<rect width="89" height="32" fill="white" transform="translate(15 1)"/>
</clipPath>
<clipPath id="clip1_1621_19924">
<rect width="89" height="32" fill="white" transform="matrix(-1 0 0 -1 104 119)"/>
</clipPath>
</defs>
</svg>
