<svg width="120" height="120" viewBox="0 0 120 120" fill="none" xmlns="http://www.w3.org/2000/svg">
<path d="M78.3866 17.881L66.9422 39.7646C74.8512 43.8838 80.2478 52.1376 80.2478 61.6482C80.2478 75.2758 69.1664 86.324 55.4978 86.324C41.8292 86.324 30.7478 75.2758 30.7478 61.6482H6C6 88.9034 28.1628 111 55.5 111C82.8372 111 105 88.9034 105 61.6482C105 42.6248 94.2024 26.1194 78.3866 17.881Z" fill="#E8EEF4"/>
<path d="M55.0099 36.995V12C27.9434 12 6 34.3822 6 61.9901H30.505C30.505 48.1862 41.4766 36.995 55.0099 36.995Z" fill="#00844A"/>
<path d="M55.0098 36.6556C59.2539 36.6556 63.2538 37.6638 66.7721 39.4455L78.5345 17.5798C71.4979 14.0163 63.498 12 55.0098 12V36.6556Z" fill="#A1D5A7"/>
<path d="M85 64C73.4023 64 64 73.4023 64 85C64 96.5977 73.4023 106 85 106C96.5977 106 106 96.5977 106 85C106 73.4023 96.5977 64 85 64ZM85 99.7955C76.8291 99.7955 70.2045 93.1709 70.2045 85C70.2045 76.8291 76.8291 70.2045 85 70.2045C93.1709 70.2045 99.7955 76.8291 99.7955 85C99.7955 93.1709 93.1709 99.7955 85 99.7955Z" fill="#434343"/>
<path d="M109.251 113C108.291 113 107.331 112.635 106.599 111.902L96.0987 101.402C94.6337 99.9366 94.6337 97.5639 96.0987 96.0988C97.5637 94.6337 99.9388 94.6337 101.401 96.0988L111.901 106.6C113.366 108.065 113.366 110.437 111.901 111.902C111.169 112.635 110.209 113 109.249 113H109.251Z" fill="#434343"/>
</svg>
