<?xml version="1.0" encoding="UTF-8"?>
<svg id="Layer_1" xmlns="http://www.w3.org/2000/svg" xmlns:xlink="http://www.w3.org/1999/xlink" version="1.1" viewBox="0 0 130 38.5">
  <!-- Generator: Adobe Illustrator 29.5.1, SVG Export Plug-In . SVG Version: 2.1.0 Build 141)  -->
  <defs>
    <style>
      .st0 {
        fill: url(#linear-gradient2);
      }

      .st1 {
        fill: url(#linear-gradient1);
      }

      .st2 {
        fill: url(#linear-gradient);
      }

      .st3 {
        fill: #00844a;
      }
    </style>
    <linearGradient id="linear-gradient" x1="-362.72" y1="-280.95" x2="-362.47" y2="-280.95" gradientTransform="translate(-19863.4 -15678.85) rotate(-179.45) scale(55.21)" gradientUnits="userSpaceOnUse">
      <stop offset=".1" stop-color="#f37a20"/>
      <stop offset=".27" stop-color="#f07420"/>
      <stop offset=".49" stop-color="#e76323"/>
      <stop offset=".74" stop-color="#da4827"/>
      <stop offset="1" stop-color="#c8252d"/>
    </linearGradient>
    <linearGradient id="linear-gradient1" x1="-369.59" y1="-280.17" x2="-369.35" y2="-280.17" gradientTransform="translate(18143.08 14028.14) rotate(.55) scale(49.41)" gradientUnits="userSpaceOnUse">
      <stop offset="0" stop-color="#1aafe5"/>
      <stop offset="1" stop-color="#0a62ae"/>
    </linearGradient>
    <linearGradient id="linear-gradient2" x1="-368.49" y1="-281.06" x2="-368.23" y2="-281.06" gradientTransform="translate(26726.5 20808.6) rotate(.55) scale(73.03)" gradientUnits="userSpaceOnUse">
      <stop offset="0" stop-color="#8dc540"/>
      <stop offset=".14" stop-color="#87c241"/>
      <stop offset=".32" stop-color="#76bd43"/>
      <stop offset=".52" stop-color="#5bb348"/>
      <stop offset=".74" stop-color="#35a64f"/>
      <stop offset=".97" stop-color="#069657"/>
      <stop offset="1" stop-color="#009459"/>
    </linearGradient>
  </defs>
  <g>
    <path class="st3" d="M41.25,12.71h-6.31v17.32h6.31c5.2,0,8.98-3.62,8.98-8.63s-3.61-8.7-8.98-8.7M47.19,21.38c0,3.65-2.41,5.99-6.03,5.99h-3.18v-12.02h3.18c3.73,0,6.03,2.26,6.03,6.02"/>
    <path class="st3" d="M62.52,21.07c1.12-.77,1.87-2.31,1.87-3.91,0-2.79-2.23-4.45-5.95-4.45h-6.85v17.32h6.97c4.21,0,6.72-1.85,6.72-4.94,0-1.85-.9-3.18-2.76-4.02M57.3,19.81c-.55.14-.89.48-.99,1-.07.41.02.82.24,1.13.17.24.41.4.7.45.39.07.83.08,1.29.11,1.36.06,2.79.12,3.43,1.32.39.72.32,1.66-.14,2.32-.48.7-1.42,1.12-2.8,1.2-.17,0-.36.01-.55.01h-3.84v-12.02h3.48c2.3,0,3.21.66,3.21,2.07,0,.77-.29,1.48-.87,1.9-.52.37-1.28.38-2.01.4-.32,0-.79,0-1.16.08"/>
    <path class="st3" d="M71.17,29.77v-.26c0-.46.24-.77.71-.93v-14.43c-.47-.16-.71-.48-.71-.95v-.24h3.95v.24c0,.47-.24.78-.71.95v6.08h7.92v-6.08c-.47-.16-.71-.48-.71-.95v-.24h3.92v.24c0,.47-.23.78-.7.95v14.43c.47.16.7.47.7.93v.26h-3.92v-.26c0-.46.24-.77.71-.93v-6.08h-7.92v6.08c.47.16.71.47.71.93v.26h-3.95Z"/>
    <path class="st3" d="M116,27.78c0,.3-.1.54-.28.72l-.08.08c-1.23,1.01-2.67,1.52-4.32,1.52-1.96,0-3.57-.58-4.84-1.74-1.26-1.15-1.9-2.69-1.9-4.58s.58-3.45,1.71-4.63c1.13-1.19,2.58-1.79,4.33-1.79s3.18.59,4.31,1.77,1.71,2.66,1.7,4.45c0,.51-.04.96-.12,1.4h-9.28c.14.69.48,1.26,1,1.72.79.75,1.87,1.11,3.23,1.11,1.1,0,2.05-.28,2.85-.81.19-.16.41-.24.69-.24s.53.1.72.3c.2.2.3.45.3.72M107.15,22.74h6.93c-.02-.73-.35-1.44-.99-2.09-.63-.66-1.46-1-2.49-1s-1.94.37-2.59,1.11c-.46.52-.75,1.18-.87,1.99"/>
    <path class="st3" d="M91.14,28.86c0,.35-.12.65-.36.89-.24.24-.54.36-.9.36s-.65-.12-.89-.36c-.24-.24-.36-.54-.36-.89v-10.02c-.41-.14-.63-.46-.63-.94v-.24h3.13v11.19h.01ZM91.61,13.89c0,.49-.17.9-.51,1.24-.34.35-.75.52-1.23.52s-.89-.18-1.24-.52c-.34-.35-.52-.76-.52-1.25s.17-.9.52-1.24c.34-.34.76-.52,1.24-.52s.89.17,1.23.52.51.76.51,1.24"/>
    <path class="st3" d="M121.86,28.86c0,.35-.12.65-.36.89-.24.24-.54.36-.9.36s-.65-.12-.88-.36c-.24-.24-.36-.54-.36-.89v-15.88c-.41-.14-.61-.46-.61-.93v-.24h3.13v11.24l5.01-5.38h3.12l-5.25,5.69,4.77,4.56c.3.25.46.58.46.97,0,.32-.12.6-.36.84-.24.24-.52.36-.84.36s-.63-.11-.87-.34l-6.03-5.7v4.79h-.01Z"/>
    <path class="st3" d="M101.17,15.27v13.33c.48.14.72.46.72.93v.24h-3.96v-.24c0-.47.23-.78.7-.93v-13.33h-3.98c-.14.42-.45.64-.91.64h-.22v-2.95h12.79v2.95h-.22c-.46,0-.76-.2-.9-.64,0,0-4.02,0-4.02,0Z"/>
  </g>
  <g>
    <path class="st2" d="M9.4,15.41c-1.07-1-2.38-1.82-3.97-2.37-.79-.28-2.09-.69-3.21-.69-.95,0-1.77.3-1.99,1.26-.4,1.83-.2,17.55-.07,19.38.1,1.34.66,2.12,2.23,2.08,10.88-.18,13.73-13.43,7.02-19.67Z"/>
    <path class="st1" d="M21.87,2.78c-.97-.9-2.18-1.65-3.6-2.15C17.55.36,16.36,0,15.35,0c-.88,0-1.61.29-1.81,1.15-.36,1.66-.19,15.94-.06,17.59.1,1.22.6,1.91,2.01,1.9,9.88-.16,12.48-12.2,6.38-17.87h0Z"/>
    <path class="st0" d="M26.24,16.06c-1.23-1.13-2.74-2.07-4.53-2.71-.91-.32-2.41-.79-3.67-.79-1.1,0-2.03.35-2.27,1.44-.46,2.08-.24,20.03-.07,22.1.12,1.53.75,2.41,2.53,2.38,12.42-.2,15.68-15.33,8.02-22.44h0Z"/>
  </g>
</svg>